<?xml version="1.0" standalone="no"?><!DOCTYPE svg PUBLIC "-//W3C//DTD SVG 1.1//EN" "http://www.w3.org/Graphics/SVG/1.1/DTD/svg11.dtd"><svg t="1620281217396" class="icon" viewBox="0 0 1028 1024" version="1.1" xmlns="http://www.w3.org/2000/svg" p-id="2936" xmlns:xlink="http://www.w3.org/1999/xlink" width="200.78125" height="200"><defs><style type="text/css"></style></defs><path d="M519.395427 32.13312c265.3952 0 480.54272 215.14752 480.54272 480.54272 0 265.3952-215.14752 480.54272-480.54272 480.54272V32.13312z" fill="#30C03F" p-id="2937"></path><path d="M508.909667 59.66336c250.19392 0 453.0176 202.82368 453.0176 453.0176 0 250.19392-202.82368 453.0176-453.0176 453.0176V59.66336z" fill="#EB4E41" p-id="2938"></path><path d="M519.395427 32.13312c-265.3952 0-480.54272 215.14752-480.54272 480.54272 0 265.3952 215.14752 480.54272 480.54272 480.54272V32.13312z" fill="#30C03F" p-id="2939"></path><path d="M637.529187 213.46304m-34.27328 0a34.27328 34.27328 0 1 0 68.54656 0 34.27328 34.27328 0 1 0-68.54656 0Z" fill="#770000" p-id="2940"></path><path d="M637.529187 811.89376m-34.27328 0a34.27328 34.27328 0 1 0 68.54656 0 34.27328 34.27328 0 1 0-68.54656 0Z" fill="#770000" p-id="2941"></path><path d="M777.499747 322.176m-34.27328 0a34.27328 34.27328 0 1 0 68.54656 0 34.27328 34.27328 0 1 0-68.54656 0Z" fill="#770000" p-id="2942"></path><path d="M777.499747 692.00384m-34.27328 0a34.27328 34.27328 0 1 0 68.54656 0 34.27328 34.27328 0 1 0-68.54656 0Z" fill="#770000" p-id="2943"></path><path d="M834.157667 499.04128m-34.27328 0a34.27328 34.27328 0 1 0 68.54656 0 34.27328 34.27328 0 1 0-68.54656 0Z" fill="#770000" p-id="2944"></path><path d="M290.741347 935.42912a477.50656 477.50656 0 0 0 97.57696 39.54176V50.3808a477.52704 477.52704 0 0 0-97.57696 39.54688v845.50144zM132.558947 227.64032C73.694307 307.38944 38.852707 405.94944 38.852707 512.67584s34.8416 205.2864 93.70624 285.04064V227.64032zM418.623587 42.8032v939.74528a482.2528 482.2528 0 0 0 100.77184 10.67008V32.13312c-34.57536 0-68.27008 3.73248-100.77184 10.67008zM260.436067 107.97568a483.0208 483.0208 0 0 0-97.57696 82.54976v644.30592a482.88256 482.88256 0 0 0 97.57696 82.54976V107.97568z" fill="#97CF43" p-id="2945"></path></svg>