<?xml version="1.0" standalone="no"?><!DOCTYPE svg PUBLIC "-//W3C//DTD SVG 1.1//EN" "http://www.w3.org/Graphics/SVG/1.1/DTD/svg11.dtd"><svg t="1620282369366" class="icon" viewBox="0 0 1024 1024" version="1.1" xmlns="http://www.w3.org/2000/svg" p-id="53270" xmlns:xlink="http://www.w3.org/1999/xlink" width="200" height="200"><defs><style type="text/css"></style></defs><path d="M512 684.736494c180.074972 0 326.280044-146.205072 326.280044-326.844543H185.719956c0 180.639471 145.640573 326.844542 326.280044 326.844543" fill="#3BB777" p-id="53271"></path><path d="M782.394708 357.891951c0 171.042999-131.528115 311.603087-298.619625 325.715546 9.031974 0.564498 18.628445 1.128997 27.660419 1.128997 180.074972 0 326.280044-146.205072 326.280044-326.844543h-55.320838z m0 0" fill="#229857" p-id="53272"></path><path d="M199.832415 372.00441c7.338479 165.962514 144.511577 299.184123 312.167585 299.184124 167.656009 0 304.829107-133.22161 312.167585-299.184124H199.832415z m312.167585 326.844543c-187.413451 0-340.392503-152.979052-340.392503-340.957002 0-3.951488 1.693495-7.338479 3.951489-9.596471 2.822492-2.822492 6.209482-3.951488 9.596472-3.951489h653.124586c3.951488 0 7.338479 1.693495 9.596472 3.951489 2.822492 2.822492 3.951488 6.209482 3.951488 9.596471 0.564498 187.977949-152.414553 340.957001-339.828004 340.957002z m0 0" fill="#0F0F0F" p-id="53273"></path><path d="M512 625.464168c147.898567 0 267.572216-119.673649 267.572216-267.572217H244.427784c0 147.898567 119.673649 267.572216 267.572216 267.572217" fill="#F93E51" p-id="53274"></path><path d="M259.104741 372.00441c7.338479 133.786108 117.980154 239.911797 252.895259 239.911797s245.556781-106.125689 252.895259-239.911797H259.104741z m252.895259 267.572216c-155.237045 0-281.120176-126.44763-281.120176-281.684675 0-3.951488 1.693495-7.338479 3.951488-9.596471 2.822492-2.822492 6.209482-3.951488 9.596472-3.951489H779.007718c3.951488 0 7.338479 1.693495 9.596472 3.951489 2.822492 2.822492 3.951488 6.209482 3.951488 9.596471 0.564498 155.237045-125.318633 281.684675-280.555678 281.684675z m0 0" fill="#454849" p-id="53275"></path><path d="M723.68688 357.891951c0 138.302095-104.996692 252.330761-239.347299 266.44322 9.031974 1.128997 18.628445 1.693495 27.660419 1.693495 147.898567 0 267.572216-119.673649 267.572216-267.572216l-55.885336-0.564499z m0 0" fill="#D63A6B" p-id="53276"></path><path d="M259.104741 372.00441c7.338479 133.786108 117.980154 239.911797 252.895259 239.911797s245.556781-106.125689 252.895259-239.911797H259.104741z m252.895259 267.572216c-155.237045 0-281.120176-126.44763-281.120176-281.684675 0-3.951488 1.693495-7.338479 3.951488-9.596471 2.822492-2.822492 6.209482-3.951488 9.596472-3.951489H779.007718c3.951488 0 7.338479 1.693495 9.596472 3.951489 2.822492 2.822492 3.951488 6.209482 3.951488 9.596471 0.564498 155.237045-125.318633 281.684675-280.555678 281.684675z m0 0" fill="#0C0C0C" p-id="53277"></path><path d="M526.112459 483.775083c0 7.902977-6.209482 14.112459-14.112459 14.112458s-14.112459-6.209482-14.112459-14.112458 6.209482-29.918412 14.112459-29.918413 14.112459 22.015436 14.112459 29.918413m-118.544653-23.708931c-2.822492 3.951488-2.822492 9.596472-0.564498 14.112459s6.77398 7.338479 11.854465 7.338478c5.080485 0 9.596472-2.822492 12.418963-6.77398 3.951488-6.77398 10.16097-28.789416 3.951489-32.740904-6.77398-3.951488-23.708931 11.854465-27.660419 18.063947m-43.466373-32.176406c-6.77398 3.38699-15.241455 0.564498-18.628445-6.209481-3.38699-6.77398-0.564498-15.241455 6.209482-18.628446 6.77398-3.38699 29.353914-7.902977 32.740904-1.128997 3.38699 6.77398-13.54796 22.579934-20.321941 25.966924m250.072768 32.176406c2.822492 3.951488 2.822492 9.596472 0.564498 14.112459s-6.77398 7.338479-11.854465 7.338478c-5.080485 0-9.596472-2.257993-12.418964-6.77398-3.951488-6.77398-10.16097-28.789416-3.951488-32.740904 6.77398-3.951488 23.708931 11.854465 27.660419 18.063947m43.466372-32.176406c6.77398 3.38699 15.241455 0.564498 18.628446-6.209481 3.38699-6.77398 0.564498-15.241455-6.209482-18.628446-6.77398-3.38699-29.353914-7.902977-32.740904-1.128997-3.38699 6.77398 13.54796 22.579934 20.32194 25.966924" fill="#232323" p-id="53278"></path><path d="M346.601985 504.097023c-2.822492 0-5.644983-1.128997-7.338479-2.822492-16.93495-16.93495-31.611907-39.514884-41.772878-65.481808-1.693495-3.38699-1.128997-7.338479 1.128997-10.725468 2.257993-2.822492 6.209482-4.515987 10.16097-3.951489 3.951488 0.564498 6.77398 3.38699 8.467476 6.77398 9.596472 23.144432 22.579934 43.466373 37.25689 58.707828 2.822492 2.822492 3.951488 7.338479 2.257994 11.289967-2.257993 3.951488-6.209482 6.209482-10.16097 6.209482m-42.337376-112.899669c3.951488 3.38699 5.644983 9.596472 3.951488 14.676957-1.693495 5.080485-6.209482 9.031974-11.854465 9.596472-5.644983 0.564498-10.725469-2.257993-13.547961-7.338479-2.257993-5.080485-1.693495-10.725469 1.693495-15.241455 5.080485-5.644983 14.112459-6.77398 19.757443-1.693495" fill="#FEFEFE" p-id="53279"></path></svg>